<?xml version="1.0" standalone="no"?><!DOCTYPE svg PUBLIC "-//W3C//DTD SVG 1.1//EN" "http://www.w3.org/Graphics/SVG/1.1/DTD/svg11.dtd"><svg t="1723430431873" class="icon" viewBox="0 0 1024 1024" version="1.1" xmlns="http://www.w3.org/2000/svg" p-id="4274" xmlns:xlink="http://www.w3.org/1999/xlink" width="200" height="200"><path d="M128 401.365333a31.786667 31.786667 0 0 0 6.997333 1.621334l3.712 0.213333h757.333334l0.042666 317.568c-8.490667-11.093333-18.432-20.906667-29.653333-29.141333l-8.661333-5.888-41.898667-27.690667 0.725333-1.706667 4.053334-11.818666c7.424-24.064 11.093333-50.858667 11.093333-79.829334a137.984 137.984 0 0 0-275.712-7.850666l-0.213333 7.850666 0.213333 10.752 0.810667 11.946667 1.621333 14.08c2.005333 13.909333 5.12 27.306667 9.216 40.064l4.437333 12.501333 1.578667 3.712-43.989333 28.032-7.850667 5.333334-8.192 6.528a150.186667 150.186667 0 0 0-45.226667 65.621333l-2.986666 9.6-13.269334 48.64-1.536 6.698667-0.938666 6.442666c-2.474667 22.613333 3.029333 43.946667 14.165333 61.397334L256.085333 896a128 128 0 0 1-127.829333-120.490667L128.042667 768 128 401.365333zM693.76 469.333333c52.650667 0 95.317333 42.666667 95.317333 95.36 0 43.093333-9.173333 78.805333-26.154666 104.021334l-2.730667 3.754666 74.752 49.28c20.309333 12.885333 35.626667 32.170667 43.605333 54.698667l2.389334 7.637333 13.269333 48.64a50.048 50.048 0 0 1-43.434667 63.061334l-4.864 0.213333h-304.256c-31.402667 0-54.613333-28.330667-49.408-58.453333l1.066667-4.778667 13.312-48.682667c6.314667-23.210667 20.224-43.52 39.381333-57.770666l6.570667-4.522667 77.866667-49.493333-3.328-4.565334c-16.64-24.405333-26.837333-57.514667-28.416-93.226666l-0.213334-9.813334C598.485333 512 641.109333 469.333333 693.76 469.333333z m-251.434667 62.805334l-1.322666 4.138666-41.728 167.466667-0.768 4.266667a32 32 0 0 0 61.568 15.36l1.28-4.138667 41.770666-167.509333 0.725334-4.266667a32 32 0 0 0-61.525334-15.36z m-133.290666-13.866667l-3.584 3.114667-82.773334 82.773333-3.072 3.541333a32 32 0 0 0-0.341333 37.632l3.413333 4.010667 82.602667 82.901333 3.584 3.114667a32 32 0 0 0 37.674667 0.341333l4.010666-3.413333 3.072-3.541333a32 32 0 0 0 0.384-37.674667l-3.413333-4.010667L290.56 626.773333l60.16-60.16 3.114667-3.584a32 32 0 0 0-44.757334-44.757333zM768.042667 128a128 128 0 0 1 127.786666 120.490667l0.213334 7.509333v83.2H138.709333l-4.309333 0.298667a31.786667 31.786667 0 0 0-6.4 1.536L128.042667 256a128 128 0 0 1 120.490666-127.786667L256.042667 128h512z m-240 85.333333a37.333333 37.333333 0 1 0 0 74.666667 37.333333 37.333333 0 0 0 0-74.666667z m107.093333 0a37.333333 37.333333 0 1 0 0 74.666667 37.333333 37.333333 0 0 0 0-74.666667z m106.709333 0a37.333333 37.333333 0 1 0 0 74.666667 37.333333 37.333333 0 0 0 0-74.666667z" fill="#191919" p-id="4275"></path></svg>