<?xml version="1.0" standalone="no"?><!DOCTYPE svg PUBLIC "-//W3C//DTD SVG 1.1//EN" "http://www.w3.org/Graphics/SVG/1.1/DTD/svg11.dtd"><svg t="1723952390004" class="icon" viewBox="0 0 1024 1024" version="1.1" xmlns="http://www.w3.org/2000/svg" p-id="18136" xmlns:xlink="http://www.w3.org/1999/xlink" width="200" height="200"><path d="M301.714286 475.428571a27.428571 27.428571 0 0 1 27.428571-27.428571h256a27.428571 27.428571 0 0 1 0 54.857143H329.142857a27.428571 27.428571 0 0 1-27.428571-27.428572zM301.714286 658.285714a27.428571 27.428571 0 0 1 27.428571-27.428571h365.714286a27.428571 27.428571 0 0 1 0 54.857143H329.142857a27.428571 27.428571 0 0 1-27.428571-27.428572z" fill="#3D71F9" p-id="18137" data-spm-anchor-id="a313x.search_index.0.i7.5a6e3a8156eMx8" class="selected"></path><path d="M118.857143 402.285714A137.142857 137.142857 0 0 1 256 265.142857h512A137.142857 137.142857 0 0 1 905.142857 402.285714v329.142857A137.142857 137.142857 0 0 1 768 868.571429H256A137.142857 137.142857 0 0 1 118.857143 731.428571v-329.142857zM256 320A82.285714 82.285714 0 0 0 173.714286 402.285714v329.142857A82.285714 82.285714 0 0 0 256 813.714286h512A82.285714 82.285714 0 0 0 850.285714 731.428571v-329.142857A82.285714 82.285714 0 0 0 768 320H256z" fill="#64748B" p-id="18138"></path><path d="M560.384 215.405714a82.285714 82.285714 0 0 0-96.768 0L326.948571 314.770286a27.428571 27.428571 0 1 1-32.256-44.397715l136.594286-99.328a137.142857 137.142857 0 0 1 161.353143 0l136.594286 99.328a27.428571 27.428571 0 1 1-32.256 44.397715L560.384 215.405714z" fill="#64748B" p-id="18139"></path></svg>